<?xml version="1.0" encoding="UTF-8"?>
<svg width="32" height="32" viewBox="0 0 32 32" fill="none" xmlns="http://www.w3.org/2000/svg">
  <!-- Background Circle -->
  <circle cx="16" cy="16" r="16" fill="#7C3AED"/>
  
  <!-- Lock Symbol -->
  <path d="M12 14V12C12 9.79086 13.7909 8 16 8C18.2091 8 20 9.79086 20 12V14" stroke="white" stroke-width="2" stroke-linecap="round"/>
  <rect x="10" y="14" width="12" height="8" rx="2" stroke="white" stroke-width="2"/>
  
  <!-- Chat Bubble -->
  <path d="M8 20C8 18.3431 9.34315 17 11 17H21C22.6569 17 24 18.3431 24 20V24C24 25.6569 22.6569 27 21 27H11C9.34315 27 8 25.6569 8 24V20Z" stroke="white" stroke-width="2"/>
  
  <!-- Message Lines -->
  <line x1="12" y1="22" x2="20" y2="22" stroke="white" stroke-width="2" stroke-linecap="round"/>
  <line x1="12" y1="25" x2="16" y2="25" stroke="white" stroke-width="2" stroke-linecap="round"/>
</svg> 